<svg width="76" height="30" viewBox="0 0 76 30" fill="none" xmlns="http://www.w3.org/2000/svg">
<path d="M8.81 29.24C6.15 29.24 4.02 28.74 2.42 27.74C0.82 26.72 0.0200001 25.17 0.0200001 23.09C0.0200001 21.99 0.21 21.15 0.59 20.57C0.97 19.99 1.53 19.7 2.27 19.7C2.81 19.7 3.25 19.84 3.59 20.12C3.93 20.4 4.1 20.76 4.1 21.2C4.1 21.6 4.07 21.95 4.01 22.25C4.01 22.33 3.99 22.47 3.95 22.67C3.93 22.87 3.92 23.08 3.92 23.3C3.92 24.2 4.37 24.87 5.27 25.31C6.19 25.75 7.47 25.97 9.11 25.97C10.81 25.97 12.14 25.67 13.1 25.07C14.06 24.45 14.54 23.59 14.54 22.49C14.54 21.81 14.32 21.23 13.88 20.75C13.44 20.25 12.89 19.84 12.23 19.52C11.57 19.18 10.64 18.77 9.44 18.29C7.9 17.69 6.64 17.12 5.66 16.58C4.7 16.04 3.87 15.31 3.17 14.39C2.49 13.45 2.15 12.29 2.15 10.91C2.15 9.47 2.53 8.19 3.29 7.07C4.07 5.95 5.18 5.08 6.62 4.46C8.08 3.84 9.79 3.53 11.75 3.53C13.21 3.53 14.55 3.75 15.77 4.19C16.99 4.61 17.96 5.26 18.68 6.14C19.42 7.02 19.79 8.1 19.79 9.38C19.79 10.64 19.6 11.59 19.22 12.23C18.84 12.87 18.28 13.19 17.54 13.19C17.02 13.19 16.58 13.03 16.22 12.71C15.88 12.39 15.71 12.01 15.71 11.57C15.71 11.19 15.74 10.84 15.8 10.52C15.86 9.92 15.89 9.54 15.89 9.38C15.89 8.54 15.48 7.9 14.66 7.46C13.84 7.02 12.82 6.8 11.6 6.8C9.88 6.8 8.56 7.12 7.64 7.76C6.74 8.38 6.29 9.26 6.29 10.4C6.29 11.16 6.52 11.81 6.98 12.35C7.46 12.89 8.05 13.34 8.75 13.7C9.45 14.06 10.43 14.49 11.69 14.99C13.21 15.61 14.43 16.17 15.35 16.67C16.27 17.17 17.05 17.85 17.69 18.71C18.35 19.57 18.68 20.63 18.68 21.89C18.68 24.25 17.78 26.07 15.98 27.35C14.2 28.61 11.81 29.24 8.81 29.24ZM34.3278 22.31C34.5878 22.31 34.7878 22.43 34.9278 22.67C35.0878 22.91 35.1678 23.24 35.1678 23.66C35.1678 24.46 34.9778 25.08 34.5978 25.52C33.7378 26.58 32.7978 27.45 31.7778 28.13C30.7578 28.81 29.5878 29.15 28.2678 29.15C24.1878 29.15 22.1478 26.28 22.1478 20.54C22.1478 19.66 22.1778 18.77 22.2378 17.87H21.0678C20.4678 17.87 20.0578 17.76 19.8378 17.54C19.6378 17.32 19.5378 16.97 19.5378 16.49C19.5378 15.37 19.9878 14.81 20.8878 14.81H22.5978C22.9378 12.61 23.4578 10.6 24.1578 8.78C24.8578 6.96 25.6978 5.51 26.6778 4.43C27.6778 3.35 28.7478 2.81 29.8878 2.81C30.7278 2.81 31.3878 3.18 31.8678 3.92C32.3478 4.66 32.5878 5.59 32.5878 6.71C32.5878 9.81 31.2878 12.51 28.6878 14.81H32.0478C32.3678 14.81 32.5978 14.88 32.7378 15.02C32.8778 15.16 32.9478 15.42 32.9478 15.8C32.9478 17.18 31.8178 17.87 29.5578 17.87H25.8978C25.8578 18.87 25.8378 19.65 25.8378 20.21C25.8378 22.29 26.0778 23.75 26.5578 24.59C27.0578 25.43 27.8378 25.85 28.8978 25.85C29.7578 25.85 30.5178 25.59 31.1778 25.07C31.8378 24.55 32.6178 23.77 33.5178 22.73C33.7578 22.45 34.0278 22.31 34.3278 22.31ZM29.0778 5.69C28.7778 5.69 28.4378 6.07 28.0578 6.83C27.6978 7.57 27.3478 8.61 27.0078 9.95C26.6878 11.27 26.4178 12.74 26.1978 14.36C27.3778 13.34 28.2578 12.2 28.8378 10.94C29.4378 9.66 29.7378 8.5 29.7378 7.46C29.7378 6.28 29.5178 5.69 29.0778 5.69ZM36.6552 13.04C35.8152 13.04 35.1852 12.85 34.7652 12.47C34.3452 12.07 34.1352 11.52 34.1352 10.82C34.1352 10.12 34.4052 9.54 34.9452 9.08C35.5052 8.6 36.1952 8.36 37.0152 8.36C37.7552 8.36 38.3552 8.54 38.8152 8.9C39.2752 9.26 39.5052 9.77 39.5052 10.43C39.5052 11.23 39.2452 11.87 38.7252 12.35C38.2052 12.81 37.5152 13.04 36.6552 13.04ZM36.4152 29.15C35.1152 29.15 34.1652 28.69 33.5652 27.77C32.9852 26.85 32.6952 25.63 32.6952 24.11C32.6952 23.21 32.8052 22.06 33.0252 20.66C33.2652 19.24 33.5652 17.92 33.9252 16.7C34.1052 16.06 34.3452 15.62 34.6452 15.38C34.9452 15.14 35.4252 15.02 36.0852 15.02C37.1052 15.02 37.6152 15.36 37.6152 16.04C37.6152 16.54 37.4252 17.7 37.0452 19.52C36.5652 21.72 36.3252 23.21 36.3252 23.99C36.3252 24.59 36.4052 25.05 36.5652 25.37C36.7252 25.69 36.9952 25.85 37.3752 25.85C37.7352 25.85 38.1852 25.6 38.7252 25.1C39.2652 24.6 39.9852 23.81 40.8852 22.73C41.1252 22.45 41.3952 22.31 41.6952 22.31C41.9552 22.31 42.1552 22.43 42.2952 22.67C42.4552 22.91 42.5352 23.24 42.5352 23.66C42.5352 24.46 42.3452 25.08 41.9652 25.52C39.9852 27.94 38.1352 29.15 36.4152 29.15ZM53.488 22.31C53.748 22.31 53.948 22.43 54.088 22.67C54.248 22.91 54.328 23.24 54.328 23.66C54.328 24.46 54.138 25.08 53.758 25.52C52.898 26.58 51.958 27.45 50.938 28.13C49.918 28.81 48.748 29.15 47.428 29.15C43.348 29.15 41.308 26.28 41.308 20.54C41.308 19.66 41.338 18.77 41.398 17.87H40.228C39.628 17.87 39.218 17.76 38.998 17.54C38.798 17.32 38.698 16.97 38.698 16.49C38.698 15.37 39.148 14.81 40.048 14.81H41.758C42.098 12.61 42.618 10.6 43.318 8.78C44.018 6.96 44.858 5.51 45.838 4.43C46.838 3.35 47.908 2.81 49.048 2.81C49.888 2.81 50.548 3.18 51.028 3.92C51.508 4.66 51.748 5.59 51.748 6.71C51.748 9.81 50.448 12.51 47.848 14.81H51.208C51.528 14.81 51.758 14.88 51.898 15.02C52.038 15.16 52.108 15.42 52.108 15.8C52.108 17.18 50.978 17.87 48.718 17.87H45.058C45.018 18.87 44.998 19.65 44.998 20.21C44.998 22.29 45.238 23.75 45.718 24.59C46.218 25.43 46.998 25.85 48.058 25.85C48.918 25.85 49.678 25.59 50.338 25.07C50.998 24.55 51.778 23.77 52.678 22.73C52.918 22.45 53.188 22.31 53.488 22.31ZM48.238 5.69C47.938 5.69 47.598 6.07 47.218 6.83C46.858 7.57 46.508 8.61 46.168 9.95C45.848 11.27 45.578 12.74 45.358 14.36C46.538 13.34 47.418 12.2 47.998 10.94C48.598 9.66 48.898 8.5 48.898 7.46C48.898 6.28 48.678 5.69 48.238 5.69ZM57.6153 29.15C55.6553 29.15 54.1253 28.6 53.0253 27.5C51.9453 26.38 51.4053 24.91 51.4053 23.09C51.4053 21.47 51.7253 20.05 52.3653 18.83C53.0053 17.61 53.8353 16.67 54.8553 16.01C55.8753 15.35 56.9453 15.02 58.0653 15.02C59.1653 15.02 60.0153 15.35 60.6153 16.01C61.2353 16.65 61.5453 17.48 61.5453 18.5C61.5453 19.34 61.3553 20.05 60.9753 20.63C60.6153 21.21 60.1353 21.5 59.5353 21.5C59.1553 21.5 58.8453 21.41 58.6053 21.23C58.3853 21.05 58.2753 20.8 58.2753 20.48C58.2753 20.34 58.2953 20.18 58.3353 20C58.3753 19.82 58.4053 19.69 58.4253 19.61C58.5253 19.31 58.5753 19.03 58.5753 18.77C58.5753 18.51 58.5053 18.31 58.3653 18.17C58.2453 18.03 58.0653 17.96 57.8253 17.96C57.3653 17.96 56.9353 18.17 56.5353 18.59C56.1353 18.99 55.8153 19.54 55.5753 20.24C55.3353 20.94 55.2153 21.71 55.2153 22.55C55.2153 24.87 56.2253 26.03 58.2453 26.03C59.0653 26.03 59.9453 25.76 60.8853 25.22C61.8453 24.66 62.7853 23.83 63.7053 22.73C63.9453 22.45 64.2153 22.31 64.5153 22.31C64.7753 22.31 64.9753 22.43 65.1153 22.67C65.2753 22.91 65.3553 23.24 65.3553 23.66C65.3553 24.42 65.1653 25.04 64.7853 25.52C63.8453 26.68 62.7153 27.58 61.3953 28.22C60.0953 28.84 58.8353 29.15 57.6153 29.15ZM73.5502 15.02C74.1902 15.02 74.6702 15.19 74.9902 15.53C75.3302 15.85 75.5002 16.33 75.5002 16.97C75.5002 17.49 75.3902 18.47 75.1702 19.91C74.9702 21.13 74.8102 22.29 74.6902 23.39C74.5702 24.47 74.5102 25.68 74.5102 27.02C74.5102 27.78 74.3502 28.33 74.0302 28.67C73.7302 28.99 73.2302 29.15 72.5302 29.15C71.8702 29.15 71.3902 28.98 71.0902 28.64C70.7902 28.3 70.6402 27.79 70.6402 27.11C70.6402 26.31 70.7802 24.99 71.0602 23.15C71.3002 21.55 71.4202 20.53 71.4202 20.09C71.4202 19.77 71.3102 19.61 71.0902 19.61C70.8302 19.61 70.4602 19.95 69.9802 20.63C69.5002 21.29 69.0202 22.17 68.5402 23.27C68.0602 24.37 67.6702 25.53 67.3702 26.75C67.1502 27.69 66.8902 28.33 66.5902 28.67C66.3102 28.99 65.8602 29.15 65.2402 29.15C64.6202 29.15 64.1602 28.93 63.8602 28.49C63.5802 28.03 63.3902 27.33 63.2902 26.39C63.1902 25.45 63.1402 24.07 63.1402 22.25C63.1402 19.17 63.4502 15.96 64.0702 12.62C64.7102 9.28 65.6402 6.48 66.8602 4.22C68.1002 1.94 69.5802 0.799998 71.3002 0.799998C72.2202 0.799998 72.9602 1.2 73.5202 2C74.1002 2.78 74.3902 3.8 74.3902 5.06C74.3902 7.08 73.8002 9.18 72.6202 11.36C71.4402 13.52 69.5202 16.05 66.8602 18.95C66.8002 19.99 66.7702 21.06 66.7702 22.16C67.4302 20.46 68.1602 19.08 68.9602 18.02C69.7802 16.94 70.5802 16.17 71.3602 15.71C72.1602 15.25 72.8902 15.02 73.5502 15.02ZM70.6702 3.77C70.3102 3.77 69.9102 4.29 69.4702 5.33C69.0302 6.35 68.6002 7.74 68.1802 9.5C67.7802 11.24 67.4502 13.14 67.1902 15.2C68.4302 13.74 69.4502 12.15 70.2502 10.43C71.0702 8.71 71.4802 7.15 71.4802 5.75C71.4802 5.11 71.4102 4.62 71.2702 4.28C71.1302 3.94 70.9302 3.77 70.6702 3.77Z" fill="black"/>
</svg>
